<?xml version="1.0" encoding="UTF-8"?>
<svg version="1.1" xmlns="http://www.w3.org/2000/svg" width="1024" height="1024">
<path d="M0 0 C0.97510529 0.12728485 0.97510529 0.12728485 1.96990967 0.25714111 C33.36017847 4.37037509 63.87392629 11.26926985 94 21 C95.10504883 21.35288086 96.21009766 21.70576172 97.34863281 22.06933594 C154.84433115 40.59016581 209.91774078 70.98599708 256 110 C257.04251137 110.86903855 258.08550528 111.73749848 259.12890625 112.60546875 C266.04919119 118.3840301 272.7773474 124.3452725 279.37402344 130.49169922 C281.12899673 132.11966093 282.8960027 133.73392163 284.6640625 135.34765625 C292.35049965 142.39568827 299.62040768 149.66692084 306.58251953 157.4296875 C307.99809065 158.99788478 309.43091515 160.54814464 310.87109375 162.09375 C316.85122749 168.51819294 322.54926464 175.11839572 328 182 C328.50370117 182.63115723 329.00740234 183.26231445 329.52636719 183.91259766 C374.67113882 240.59021851 407.92819731 306.46950115 425 377 C425.36617432 378.49394287 425.36617432 378.49394287 425.73974609 380.01806641 C430.21492551 398.50471838 433.52800908 417.14949923 436 436 C436.24991699 437.89661377 436.24991699 437.89661377 436.50488281 439.83154297 C441.41542572 479.28363773 441.17779376 520.58814936 436 560 C435.91514343 560.65327271 435.83028687 561.30654541 435.74285889 561.97961426 C431.78503026 592.23628137 425.37064678 621.94679289 416 651 C415.63036133 652.15532227 415.26072266 653.31064453 414.87988281 654.50097656 C396.61018706 711.04266832 367.88156386 763.47132526 331 810 C330.53239258 810.59216309 330.06478516 811.18432617 329.58300781 811.79443359 C324.96420188 817.61884432 320.10264626 823.19317135 315.09765625 828.6875 C313.30492554 830.66384372 311.55204773 832.6645673 309.8125 834.6875 C306.29383211 838.72531561 302.65035942 842.64411891 299 846.5625 C298.41839111 847.18793701 297.83678223 847.81337402 297.23754883 848.45776367 C291.49962363 854.59557799 285.65819608 860.5083389 279.2890625 865.9921875 C277.06452637 867.94340178 274.88871892 869.94125321 272.7199707 871.95410156 C266.67462539 877.55931261 260.45364178 882.86503198 254 888 C253.48775879 888.41185547 252.97551758 888.82371094 252.44775391 889.24804688 C223.34305261 912.64439183 191.65855916 932.69564088 158.05712891 948.99804688 C155.95252078 950.02312541 153.85735134 951.06608851 151.76171875 952.109375 C119.73110765 967.86565867 85.65007705 978.74863526 51 987 C49.96343262 987.24733887 48.92686523 987.49467773 47.85888672 987.74951172 C35.19663068 990.71059012 22.42149426 992.80554614 9.5625 994.6875 C8.52651672 994.84187027 8.52651672 994.84187027 7.46960449 994.99935913 C-15.95793911 998.4545833 -39.34019387 999.3795718 -63 999.3125 C-64.3528136 999.31057522 -65.70562733 999.30873484 -67.05844116 999.30697632 C-87.19236794 999.26895902 -107.02898861 998.75286265 -127 996 C-128.29357422 995.82839355 -129.58714844 995.65678711 -130.91992188 995.47998047 C-160.55328754 991.50088468 -189.49524501 985.04846805 -218 976 C-219.36825928 975.57533447 -219.36825928 975.57533447 -220.76416016 975.14208984 C-245.0576176 967.58843452 -268.281262 957.38888344 -291 946 C-291.97420898 945.51418457 -292.94841797 945.02836914 -293.95214844 944.52783203 C-314.54786025 934.20237718 -334.2936805 922.45810763 -353 909 C-353.74701172 908.46407227 -354.49402344 907.92814453 -355.26367188 907.37597656 C-369.2355931 897.31320832 -382.92195411 886.87416916 -395.59375 875.1953125 C-397.64278905 873.325897 -399.71664435 871.49664117 -401.80859375 869.67578125 C-414.26757789 858.79626824 -425.85263453 847.21144763 -437 835 C-437.86496094 834.0615625 -438.72992188 833.123125 -439.62109375 832.15625 C-444.97818002 826.28852292 -450.05235599 820.21520732 -455 814 C-455.50660156 813.36594238 -456.01320313 812.73188477 -456.53515625 812.07861328 C-523.6834519 727.76622905 -565.18370465 620.84817357 -566.3125 498.5625 C-566.31067719 497.34320801 -566.30885437 496.12391602 -566.30697632 494.86767578 C-566.25740813 475.08690012 -565.58514276 455.61858342 -563 436 C-562.91278687 435.33494446 -562.82557373 434.66988892 -562.73571777 433.98468018 C-560.19415532 414.77688189 -556.6188075 395.82000218 -552 377 C-551.74524902 375.95247559 -551.49049805 374.90495117 -551.22802734 373.82568359 C-542.30758637 337.65735018 -528.6023572 303.29807863 -512 270 C-511.54512207 269.08621582 -511.09024414 268.17243164 -510.62158203 267.23095703 C-500.60705145 247.26409793 -489.05651953 228.12638419 -476 210 C-475.1642041 208.83960205 -475.1642041 208.83960205 -474.31152344 207.65576172 C-467.47657115 198.20590824 -460.53771756 188.90334312 -453 180 C-452.13096145 178.95748863 -451.26250152 177.91449472 -450.39453125 176.87109375 C-444.6159699 169.95080881 -438.6547275 163.2226526 -432.50830078 156.62597656 C-430.88033907 154.87100327 -429.26607837 153.1039973 -427.65234375 151.3359375 C-420.60431173 143.64950035 -413.33307916 136.37959232 -405.5703125 129.41748047 C-404.00211522 128.00190935 -402.45185536 126.56908485 -400.90625 125.12890625 C-394.48180706 119.14877251 -387.88160428 113.45073536 -381 108 C-380.36884277 107.49629883 -379.73768555 106.99259766 -379.08740234 106.47363281 C-322.43100595 61.34576685 -256.50393481 28.0653729 -186 11 C-185.00403809 10.75588379 -184.00807617 10.51176758 -182.98193359 10.26025391 C-164.49346726 5.78463528 -145.85003796 2.48389119 -127 0 C-125.75154297 -0.16661133 -124.50308594 -0.33322266 -123.21679688 -0.50488281 C-82.87930553 -5.60247787 -40.29634658 -5.36203495 0 0 Z " fill="#FEFEFE" transform="translate(575,13)"/>
<path d="M0 0 C2.46562724 3.55340396 2.97172704 5.58927554 2.6171875 9.84375 C1.99822496 12.63399384 1.06241867 14.84837541 -0.93359375 16.9296875 C-4.49370464 19.00701579 -8.54831438 19.05788292 -12.58203125 19.52734375 C-20.2948129 20.78078513 -25.19806761 24.67883597 -29.68359375 30.90234375 C-33.25329506 37.37462187 -33.16051047 43.4568423 -33.13569641 50.66378784 C-33.13952196 51.83933294 -33.14334751 53.01487805 -33.14728898 54.22604573 C-33.15581338 57.4807448 -33.15538867 60.7352995 -33.15110838 63.99000239 C-33.14864009 67.50338727 -33.15765662 71.01674568 -33.16514587 74.53012085 C-33.17789218 81.41013399 -33.17968664 88.29010811 -33.17734561 95.17013107 C-33.17556216 100.76298288 -33.17731268 106.35582285 -33.18157005 111.94867325 C-33.18216524 112.74485456 -33.18276043 113.54103588 -33.18337366 114.3613439 C-33.18458542 115.97882485 -33.18579955 117.59630579 -33.18701603 119.21378674 C-33.19789138 134.38116775 -33.19572915 149.54852652 -33.18963119 164.71590878 C-33.18446245 178.58731663 -33.19571634 192.45865424 -33.21472941 206.33004819 C-33.23410799 220.57747977 -33.24236374 234.82487812 -33.23860615 249.07232296 C-33.23669409 257.06944726 -33.23918218 265.06651179 -33.25332069 273.06362534 C-33.26523575 279.87193798 -33.26663803 286.68015406 -33.25453053 293.48846804 C-33.24864259 296.96087051 -33.24753988 300.43309636 -33.25953293 303.90548706 C-33.26996759 307.67290377 -33.2619253 311.43984537 -33.2492218 315.20724487 C-33.25659609 316.30044253 -33.26397037 317.39364019 -33.27156812 318.51996505 C-33.21218054 326.88803907 -31.78044469 333.2755265 -26.375 339.9375 C-25.49328125 341.04738281 -25.49328125 341.04738281 -24.59375 342.1796875 C-20.36669478 346.81023435 -15.04099489 347.86017097 -9.02627242 348.24455345 C-5.57740092 348.32219926 -2.13401906 348.33195059 1.3157196 348.32078552 C2.6513732 348.32364339 3.98702516 348.32738314 5.3226741 348.33192402 C8.97768429 348.3418697 12.63259811 348.33954104 16.28761542 348.33519709 C20.23513066 348.33271462 24.18262098 348.34179697 28.13012695 348.34957886 C34.96552144 348.36160796 41.80089265 348.36673093 48.63629723 348.36746025 C58.52452846 348.36878709 68.41270323 348.38390857 78.3009145 348.40295542 C94.35205125 348.43377742 110.40318943 348.45795354 126.4543457 348.47583008 C127.41447871 348.47690276 128.37461172 348.47797544 129.36383966 348.47908062 C140.08171053 348.49090697 150.79958197 348.50111249 161.51745605 348.50952148 C165.40722658 348.51259561 169.29699709 348.51568436 173.18676758 348.51879883 C174.62657373 348.51994684 174.62657373 348.51994684 176.09546687 348.52111804 C192.09109361 348.53419194 208.08667932 348.5588181 224.08227569 348.59254223 C233.94823034 348.61284488 243.8140973 348.62311989 253.680073 348.62055302 C260.4355603 348.61951925 267.19097818 348.62913392 273.94644126 348.64719205 C277.84580275 348.65725181 281.74501067 348.6623493 285.64438057 348.65442467 C289.86813691 348.64594259 294.0915 348.66044735 298.31523132 348.67723083 C299.55198646 348.67101902 300.78874159 348.6648072 302.06297415 348.65840715 C303.19313258 348.66663029 304.323291 348.67485344 305.48769665 348.68332577 C306.4626588 348.68414022 307.43762095 348.68495468 308.44212741 348.68579382 C312.29595539 349.22691561 314.79738138 351.14690095 317.9375 353.3125 C319.90529425 356.21240732 319.47654015 358.66427855 319.125 362.0625 C317.2992357 366.29058575 315.18912086 368.01333171 311.125 370.0625 C308.41943932 370.43739682 308.41943932 370.43739682 305.4324646 370.43723011 C304.29000589 370.44443665 303.14754719 370.4516432 301.97046852 370.45906812 C300.71999418 370.45169383 299.46951984 370.44431955 298.18115234 370.4367218 C296.83571241 370.43946264 295.49027462 370.44351494 294.14484215 370.44876546 C290.44879487 370.45935769 286.75298924 370.45121992 283.05695248 370.44001496 C279.07053003 370.4311781 275.08413939 370.43961497 271.09771729 370.44587708 C263.28876479 370.45537012 255.47990464 370.4487608 247.670959 370.43661413 C238.57990189 370.42299945 229.48886683 370.42463153 220.39780211 370.42674746 C204.17859389 370.42993809 187.95942958 370.41826542 171.74023438 370.39868164 C155.99673119 370.37967718 140.25327946 370.37259401 124.50976562 370.37817383 C107.37211364 370.38422978 90.23448429 370.38405791 73.09683418 370.372688 C71.26989873 370.37148069 69.44296328 370.3702747 67.61602783 370.36907005 C66.71710638 370.36846651 65.81818494 370.36786298 64.89202344 370.36724115 C58.5529113 370.36335959 52.21380758 370.36375655 45.87469482 370.3656559 C38.1509736 370.36777665 30.42729747 370.36256287 22.70358896 370.34804235 C18.76174606 370.34079201 14.81996889 370.33672677 10.87812042 370.34128571 C7.27091509 370.34535617 3.66384559 370.34021365 0.05666089 370.32765963 C-1.86904547 370.32333586 -3.7947661 370.32882883 -5.72046852 370.33464891 C-6.86292723 370.32881671 -8.00538593 370.32298452 -9.1824646 370.31697559 C-10.16816626 370.31610882 -11.15386791 370.31524204 -12.16943932 370.314349 C-15.07731278 370.04366757 -17.22118456 369.24846719 -19.875 368.0625 C-21.18156402 367.74529949 -22.4941965 367.45169988 -23.8125 367.1875 C-33.39792871 364.81345527 -42.22199173 356.23875279 -47.3125 348 C-52.89730413 337.82429756 -54.02383609 328.64065899 -54.02890015 317.18441772 C-54.0332824 315.97902647 -54.03766465 314.77363521 -54.0421797 313.53171694 C-54.05321409 310.19356287 -54.05978265 306.85545541 -54.06436086 303.51728988 C-54.07033469 299.91385062 -54.08193987 296.31042843 -54.09265137 292.70700073 C-54.11713209 284.00933943 -54.13179482 275.3116725 -54.14471143 266.61398739 C-54.1484261 264.15597922 -54.15239909 261.69797162 -54.1564641 259.23996401 C-54.18170003 243.96352673 -54.20374467 228.6870885 -54.21619225 213.41063499 C-54.21912174 209.87515637 -54.22208344 206.33967777 -54.22509766 202.80419922 C-54.22584371 201.92551798 -54.22658976 201.04683674 -54.22735842 200.1415288 C-54.24000939 185.91066463 -54.273232 171.67992548 -54.31489949 157.44911973 C-54.35736204 142.82651055 -54.38089213 128.20396532 -54.38611281 113.58129466 C-54.38952168 105.37606509 -54.40121522 97.17103101 -54.43421555 88.96586227 C-54.46227649 81.97757334 -54.4731889 74.98952003 -54.46202008 68.00117914 C-54.4568491 64.43904372 -54.45961734 60.87740127 -54.48448563 57.31533813 C-54.51128493 53.44418941 -54.49886482 49.57370479 -54.48300171 45.70248413 C-54.4968838 44.58981025 -54.51076588 43.47713637 -54.52506864 42.3307451 C-54.38924142 28.82403915 -48.4234178 18.71178753 -39.12109375 9.28515625 C-29.97839541 0.94854268 -11.7258042 -8.11571174 0 0 Z " fill="#090909" transform="translate(228.875,330.9375)"/>
<path d="M0 0 C1.30662564 -0.00865438 2.61325128 -0.01730876 3.95947164 -0.02622539 C7.58524123 -0.04935079 11.21004488 -0.03501095 14.83579481 -0.01451623 C18.74672966 0.0011034 22.65751776 -0.01780329 26.56843567 -0.03231812 C34.23143658 -0.05516441 41.89407309 -0.04565238 49.55706681 -0.02481725 C55.78827933 -0.00853614 62.01939236 -0.00433299 68.2506237 -0.00878334 C69.13737254 -0.00941402 70.02412137 -0.01004469 70.93774138 -0.01069448 C72.73922196 -0.01204055 74.54070252 -0.01342012 76.34218305 -0.01483283 C93.24421538 -0.02677597 110.14604814 -0.00269138 127.04803502 0.03418525 C141.53758231 0.06504179 156.02689932 0.06746847 170.51646423 0.04838562 C187.34694592 0.02624524 204.17729852 0.02015811 221.00778669 0.04070824 C222.8047968 0.04287112 224.60180692 0.04502022 226.39881706 0.04715538 C227.28293297 0.04822175 228.16704889 0.04928811 229.07795619 0.05038679 C235.29507801 0.05684414 241.51213322 0.05210329 247.72924995 0.04313087 C255.31598227 0.0325657 262.90244523 0.04018904 270.489128 0.07058666 C274.35702074 0.08565954 278.22448935 0.09295247 282.09239388 0.07839584 C286.29440251 0.06286781 290.49531584 0.08639937 294.69726562 0.11352539 C296.51321019 0.09781816 296.51321019 0.09781816 298.36584049 0.08179361 C312.51821189 0.25146906 323.07209696 6.43604518 333.29307556 15.75517273 C342.49398537 25.69601584 344.91033083 38.15229585 344.79428101 51.32318115 C344.7998154 52.51821917 344.8053498 53.7132572 344.81105191 54.94450849 C344.82221296 58.22144508 344.8157193 61.49776505 344.80131519 64.77467024 C344.79012014 68.3241477 344.80217589 71.87356139 344.81115723 75.42303467 C344.82503369 82.36030133 344.81757533 89.29738499 344.80248164 96.23464281 C344.78555369 104.32531408 344.7888403 112.41594063 344.79257572 120.50662415 C344.79844397 134.94864135 344.78432303 149.39057115 344.7596283 163.83256531 C344.73570613 177.8244606 344.72862711 191.81623917 344.73912048 205.80815125 C344.75054675 221.07118641 344.752439 236.3341677 344.73802239 251.59720224 C344.73649666 253.22670169 344.7349763 254.85620115 344.73346138 256.48570061 C344.73270357 257.28729742 344.73194575 258.08889423 344.73116497 258.91478186 C344.72643569 264.54537975 344.7282639 270.17595347 344.73252678 275.80655098 C344.73746897 282.6738813 344.73140007 289.54110159 344.71163248 296.4084068 C344.70180573 299.90767197 344.696605 303.40677011 344.70452499 306.90604401 C344.71050709 310.70892237 344.6979158 314.51131338 344.68075562 318.31414795 C344.68977068 319.95265082 344.68977068 319.95265082 344.69896787 321.62425476 C344.58097903 336.06578573 340.55553866 349.06338201 330.50791931 359.65361023 C321.32946421 368.36262053 310.93739497 372.66691917 298.23057556 373.31767273 C294.59539797 373.14635361 293.36054633 372.79700461 290.16807556 370.81767273 C287.72142055 366.82146954 286.70755737 363.44756499 287.29307556 358.75517273 C288.95060883 355.62860998 291.08663792 353.35839155 294.29307556 351.75517273 C295.77149976 351.67705638 297.25092406 351.61738902 298.73057556 351.56767273 C305.68294972 350.91273893 312.03158641 348.03165723 316.99229431 343.04814148 C318.29832021 341.31069562 319.32180602 339.70150583 320.29307556 337.75517273 C320.80070466 336.80124319 321.30833376 335.84731365 321.83134556 334.86447716 C324.00441926 329.72160283 323.71086681 324.50330908 323.68075562 319.00239563 C323.68614115 317.82261812 323.69152669 316.6428406 323.69707543 315.42731225 C323.70888225 312.16533977 323.70729515 308.90369605 323.69990861 305.64172077 C323.69517152 302.11877906 323.70769161 298.59589172 323.71792603 295.07296753 C323.73510914 288.17602979 323.73595501 281.27918317 323.73071312 274.38222958 C323.72666906 268.77510324 323.72811779 263.16800381 323.73346138 257.56087875 C323.7342098 256.76234629 323.73495822 255.96381383 323.73572933 255.14108341 C323.73726083 253.51877272 323.73879918 251.89646204 323.74034429 250.27415137 C323.75406772 235.0652354 323.74863289 219.85637089 323.73715908 204.64745609 C323.72722821 190.74119833 323.74016509 176.83507365 323.76409327 162.92883642 C323.78849099 148.64181072 323.79809041 134.35484699 323.79144055 120.06780088 C323.78794964 112.04996392 323.79017178 104.03222929 323.80769157 96.01440811 C323.82242203 89.18855385 323.82303811 82.36287396 323.80562066 75.53702308 C323.79711487 72.05634225 323.79495035 68.5759728 323.81027222 65.0953083 C323.82345441 61.31721741 323.81195731 57.53997166 323.79428101 53.76191711 C323.80388601 52.66842347 323.81349102 51.57492982 323.82338709 50.4483 C323.74673912 42.47989711 322.11674263 36.43449648 317.23057556 30.06767273 C308.44170837 23.14877728 301.1731732 20.87077178 290.05203247 21.03605652 C288.7605482 21.03107981 287.46906393 21.02610311 286.13844377 21.02097559 C282.58297325 21.00796929 279.02859538 21.03190592 275.47326624 21.06219029 C271.62804738 21.08825167 267.78288865 21.07927417 263.93760681 21.07443237 C257.2838425 21.07053455 250.63040901 21.08779419 243.97672081 21.11898804 C234.35024358 21.16356114 224.72403617 21.16916747 215.09747104 21.16428095 C199.46836803 21.15684139 183.8393793 21.17168624 168.21031189 21.20487976 C167.27606262 21.20685602 166.34181334 21.20883227 165.37925348 21.21086842 C158.74635949 21.2250452 152.11346739 21.2400203 145.48057556 21.25517273 C137.89504612 21.27249537 130.30951608 21.2894457 122.72398376 21.3054657 C121.78936254 21.30744746 120.85474131 21.30942923 119.89179822 21.31147105 C104.31305633 21.34377468 88.73438582 21.35262989 73.15561372 21.34471464 C63.5510883 21.34097625 53.94704547 21.35851251 44.34262208 21.40345514 C37.76702152 21.43289226 31.19161496 21.44124144 24.61595442 21.43293202 C20.82154364 21.42890457 17.02781329 21.4348524 13.23352242 21.46703148 C9.12164647 21.50172362 5.01119109 21.49023069 0.89920044 21.47428894 C-0.30146791 21.49196776 -1.50213626 21.50964658 -2.73918849 21.52786112 C-11.73379651 21.43216163 -11.73379651 21.43216163 -15.45183849 17.96022797 C-17.80169671 14.62047703 -18.38141904 12.83603586 -18.40614319 8.88017273 C-15.27258675 -0.6430379 -8.81837839 -0.10115703 0 0 Z " fill="#060606" transform="translate(504.70692443847656,328.2448272705078)"/>
<path d="M0 0 C0.3046875 2.80078125 0.3046875 2.80078125 0 6 C-2.0546875 7.73046875 -2.0546875 7.73046875 -4.875 9.1875 C-15.89999014 15.65776448 -24.19706678 25.91279722 -27.65234375 38.34765625 C-27.76707031 38.89292969 -27.88179688 39.43820312 -28 40 C-27.13117188 40.04898438 -26.26234375 40.09796875 -25.3671875 40.1484375 C-24.21476562 40.22320312 -23.06234375 40.29796875 -21.875 40.375 C-20.73804688 40.44460938 -19.60109375 40.51421875 -18.4296875 40.5859375 C-15.04606384 40.99443876 -12.18387559 41.80967569 -9 43 C-9 43.66 -9 44.32 -9 45 C-8.27683594 45.09152344 -7.55367188 45.18304688 -6.80859375 45.27734375 C1.21680526 47.34229343 7.80179832 55.14043833 12 62 C18.17379676 72.95513393 20.36488848 85.46333017 17.28125 97.8984375 C16.33511527 100.07302136 15.27459172 102.00244313 14 104 C13.63777344 104.65742188 13.27554688 105.31484375 12.90234375 105.9921875 C11.70185101 108.0838935 10.39558741 110.03331856 9 112 C8.49339844 112.7321875 7.98679687 113.464375 7.46484375 114.21875 C1.27087696 122.16880847 -9.1017001 127.96047271 -19 130 C-32.89443897 131.21528149 -44.82517798 130.21102736 -55.86328125 120.99609375 C-65.64536073 111.85780744 -72.77444576 101.58780724 -73.6015625 87.87109375 C-73.63988429 85.72689069 -73.64681161 83.58193456 -73.625 81.4375 C-73.61662109 80.3028833 -73.60824219 79.1682666 -73.59960938 77.99926758 C-72.98684142 54.95365158 -61.33641404 38.33641404 -45.53125 22.53125 C-39.25896716 16.58480003 -32.44394949 12.31222238 -25 8 C-24.11570312 7.44441406 -23.23140625 6.88882812 -22.3203125 6.31640625 C-19.56125313 4.75108132 -17.13002053 4.36395588 -14 4 C-14 3.34 -14 2.68 -14 2 C-9.126739 0.4087311 -5.19209404 -0.21192221 0 0 Z " fill="#060606" transform="translate(336,259)"/>
<path d="M0 0 C9.54149102 8.67537353 17.42057989 18.71111745 18.18725586 32.04467773 C18.93839142 55.91487657 12.69200926 75.18753798 -3.7578125 92.96875 C-9.61318401 99.10931032 -15.69609725 104.39749143 -22.9375 108.875 C-23.89527344 109.46925781 -24.85304688 110.06351563 -25.83984375 110.67578125 C-43.85172097 121.50145263 -43.85172097 121.50145263 -53.9375 121.875 C-54.9375 120.875 -54.9375 120.875 -55.34765625 118.58203125 C-54.9375 115.875 -54.9375 115.875 -52.55859375 113.69921875 C-51.50800781 112.99410156 -50.45742188 112.28898438 -49.375 111.5625 C-42.26500336 106.5889533 -37.35525864 101.31543561 -32.9375 93.875 C-32.2775 93.875 -31.6175 93.875 -30.9375 93.875 C-30.81375 93.00875 -30.69 92.1425 -30.5625 91.25 C-29.95691879 87.97986147 -29.05443965 85.00243101 -27.9375 81.875 C-29.195625 81.9575 -30.45375 82.04 -31.75 82.125 C-42.08873115 82.09253931 -51.77205867 76.90750718 -59.0625 69.8046875 C-70.07041494 57.83774967 -73.63142783 48.27604708 -73.32421875 32.1796875 C-72.88605021 23.2676241 -69.66200411 14.78388427 -63.9375 7.875 C-63.2775 7.875 -62.6175 7.875 -61.9375 7.875 C-61.69515625 7.28847656 -61.4528125 6.70195313 -61.203125 6.09765625 C-58.05378897 0.56687785 -50.79417239 -3.98506201 -44.9375 -6.125 C-29.64602249 -9.41214755 -12.92805086 -10.13085816 0 0 Z " fill="#070707" transform="translate(645.9375,643.125)"/>
<path d="M0 0 C7.45618808 6.46536577 13.14837632 15.72205833 14.26074219 25.65356445 C14.37356585 29.01506074 14.35837828 32.34850496 14.28515625 35.7109375 C14.28386719 36.84724609 14.28257812 37.98355469 14.28125 39.15429688 C14.22029284 44.96216007 13.88958161 50.00545037 11.91015625 55.5234375 C11.50539063 56.76480469 11.100625 58.00617188 10.68359375 59.28515625 C1.39885529 85.87342356 -18.95474041 103.05002883 -43.59765625 115.26171875 C-48.94634764 117.64114913 -53.22417775 119.18999045 -59.08984375 118.5234375 C-59.4140625 115.77734375 -59.4140625 115.77734375 -59.08984375 112.5234375 C-56.859375 110.36328125 -56.859375 110.36328125 -53.90234375 108.4609375 C-42.94035617 101.04547532 -35.30187938 91.15954438 -31.08984375 78.5234375 C-32.24484375 78.57757812 -33.39984375 78.63171875 -34.58984375 78.6875 C-39.17433876 78.68144653 -42.85861574 77.57656817 -47.08984375 75.8984375 C-48.14292725 75.48368164 -48.14292725 75.48368164 -49.21728516 75.06054688 C-60.85490639 70.30696165 -68.45346007 61.85341473 -74.03955078 50.61230469 C-76.16970287 45.53764147 -76.48882983 40.98005266 -76.33984375 35.5234375 C-76.3346875 34.76804687 -76.32953125 34.01265625 -76.32421875 33.234375 C-76.14015873 19.8440089 -72.90151347 10.71814636 -63.546875 0.8515625 C-44.27528148 -17.40896172 -20.29142057 -15.53915479 0 0 Z " fill="#070707" transform="translate(767.08984375,646.4765625)"/>
<path d="M0 0 C1 1 1 1 1.375 3.32421875 C1 6 1 6 -1.125 7.95703125 C-2.07375 8.56933594 -3.0225 9.18164062 -4 9.8125 C-15.65380875 17.8310385 -21.78028156 26.95070389 -27 40 C-20.07 40.495 -20.07 40.495 -13 41 C-13 41.66 -13 42.32 -13 43 C-12.175 43.061875 -11.35 43.12375 -10.5 43.1875 C-2.01218051 45.15788667 5.22178012 51.70365514 11 58 C11.78515625 60.27734375 11.78515625 60.27734375 12 62 C12.66 62 13.32 62 14 62 C14.65239158 63.39278017 15.29660552 64.78939212 15.9375 66.1875 C16.29714844 66.96480469 16.65679687 67.74210937 17.02734375 68.54296875 C20.77801 78.01754334 20.58248819 92.24195184 17.11328125 101.76171875 C13.87345335 108.275478 9.46776981 114.19903139 4 119 C3.4740625 119.46792969 2.948125 119.93585938 2.40625 120.41796875 C-6.37858879 127.65801597 -16.60449871 131.93776007 -28.03515625 131.328125 C-39.9701015 130.00726149 -50.9276808 125.84578952 -59.0546875 116.68359375 C-64 110.49698795 -64 110.49698795 -64 108 C-64.66 108 -65.32 108 -66 108 C-70.1303394 96.64636938 -71.32511192 87.02914096 -71 75 C-70.97164063 73.90945313 -70.94328125 72.81890625 -70.9140625 71.6953125 C-70.55062198 64.33996864 -69.17850865 58.61417819 -66 52 C-65.61199219 51.07832031 -65.22398437 50.15664063 -64.82421875 49.20703125 C-54.89948524 27.04472074 -33.42210632 11.91764182 -12 2 C-11.154375 1.5875 -10.30875 1.175 -9.4375 0.75 C-6.21408502 -0.24181999 -3.34971657 -0.19325288 0 0 Z " fill="#070707" transform="translate(452,259)"/>
<path d="M0 0 C-0.66 1.32 -1.32 2.64 -2 4 C-109.25 3.67 -216.5 3.34 -327 3 C-327 2.67 -327 2.34 -327 2 C-325.97595186 1.99739563 -325.97595186 1.99739563 -324.93121588 1.99473864 C-284.5065468 1.89180416 -244.08189448 1.78371199 -203.65725736 1.66888306 C-198.80796334 1.65511279 -193.95866921 1.6413858 -189.109375 1.62768555 C-188.14393105 1.62495724 -187.1784871 1.62222894 -186.18378727 1.61941796 C-170.53291777 1.57529256 -154.88204101 1.53467631 -139.23115881 1.49534739 C-123.18270191 1.45494165 -107.13425851 1.41078696 -91.08582151 1.36312145 C-81.17588835 1.33380701 -71.26595625 1.30744845 -61.35600553 1.28482103 C-54.56871212 1.269044 -47.78143526 1.24963934 -40.99416019 1.22733159 C-37.07299728 1.21455259 -33.15184717 1.20342128 -29.23066902 1.19658089 C-25.64565569 1.19029179 -22.06068641 1.17948023 -18.4756972 1.1649667 C-16.55449954 1.1583951 -14.633287 1.1567566 -12.71207869 1.15525442 C-11.01840039 1.14704276 -11.01840039 1.14704276 -9.29050636 1.1386652 C-8.31006847 1.13600716 -7.32963058 1.13334911 -6.31948245 1.13061053 C-3.89706985 0.99420398 -2.39604154 0 0 0 Z " fill="#D8D8D8" transform="translate(544,699)"/>
<path d="M0 0 C2.8002232 1.4001116 3.56776098 3.26572551 5 6 C5 6.99 5 7.98 5 9 C0.8794254 10.99785435 -2.45194365 11.17835515 -7 11 C-7.4375 8.3125 -7.4375 8.3125 -7 5 C-4.88875077 2.95224699 -2.54140493 1.46519774 0 0 Z " fill="#202020" transform="translate(715,754)"/>
<path d="M0 0 C0.33 0.66 0.66 1.32 1 2 C0.01 3.3303125 0.01 3.3303125 -1 4.6875 C-2.98860067 7.98111986 -3.43735074 9.28251873 -3 13 C-3.99 13.33 -4.98 13.66 -6 14 C-6 14.66 -6 15.32 -6 16 C-6.99 15.67 -7.98 15.34 -9 15 C-11.94755143 15.4465987 -12.83704973 15.83704973 -15 18 C-15.99 17.34 -16.98 16.68 -18 16 C-16.93072266 15.27296875 -16.93072266 15.27296875 -15.83984375 14.53125 C-9.70241635 10.23587686 -4.60942484 5.91516635 0 0 Z " fill="#191919" transform="translate(610,742)"/>
<path d="M0 0 C0 0.33 0 0.66 0 1 C-1.98 1.33 -3.96 1.66 -6 2 C-5.67 2.66 -5.34 3.32 -5 4 C-5.33 4.66 -5.66 5.32 -6 6 C-6.99 6 -7.98 6 -9 6 C-9.66 6.66 -10.32 7.32 -11 8 C-11.33 7.34 -11.66 6.68 -12 6 C-12.33 9.3 -12.66 12.6 -13 16 C-15.36086122 12.45870816 -15.57269578 11.17249782 -15 7 C-10.80559399 0.26400224 -7.38694664 -0.1191443 0 0 Z " fill="#383838" transform="translate(807,680)"/>
<path d="M0 0 C0.33 0.99 0.66 1.98 1 3 C1.66 3 2.32 3 3 3 C3 3.66 3 4.32 3 5 C2.443125 5.20625 1.88625 5.4125 1.3125 5.625 C-1.97012371 7.57683032 -3.70673246 9.94230994 -6 13 C-6 13.66 -6 14.32 -6 15 C-6.66 15 -7.32 15 -8 15 C-8.33 15.66 -8.66 16.32 -9 17 C-11.5625 17.625 -11.5625 17.625 -14 18 C-13.01 17.1028125 -13.01 17.1028125 -12 16.1875 C-7.36938532 11.58349805 -2.92206518 5.84413037 0 0 Z " fill="#3E3E3E" transform="translate(731,736)"/>
<path d="M0 0 C4.14142759 4.14142759 3.18306693 10.60138983 3.1875 16.125 C3.19974609 16.93582031 3.21199219 17.74664062 3.22460938 18.58203125 C3.22654297 19.36191406 3.22847656 20.14179688 3.23046875 20.9453125 C3.23457764 21.65187988 3.23868652 22.35844727 3.24291992 23.08642578 C3 25 3 25 1 28 C1.01160156 26.87980469 1.02320313 25.75960938 1.03515625 24.60546875 C1.04453622 23.13281417 1.0536362 21.66015778 1.0625 20.1875 C1.07087891 19.44951172 1.07925781 18.71152344 1.08789062 17.95117188 C1.10259828 14.70077932 1.03531702 12.10595105 0 9 C-0.06740865 7.43881572 -0.08514456 5.8749748 -0.0625 4.3125 C-0.05347656 3.50425781 -0.04445313 2.69601562 -0.03515625 1.86328125 C-0.02355469 1.24839844 -0.01195312 0.63351562 0 0 Z " fill="#7B7B7B" transform="translate(351,329)"/>
<path d="M0 0 C0.66 0.33 1.32 0.66 2 1 C0.71034824 2.37562854 -0.62689293 3.70766393 -2 5 C-2.66 5 -3.32 5 -4 5 C-4.226875 5.556875 -4.45375 6.11375 -4.6875 6.6875 C-6.35896766 9.63246684 -8.55276352 11.68156544 -11 14 C-11.66 13.67 -12.32 13.34 -13 13 C-11.58791833 11.39179588 -10.17013964 9.78859292 -8.75 8.1875 C-7.96109375 7.29417969 -7.1721875 6.40085937 -6.359375 5.48046875 C-4.34120555 3.35871775 -2.40083295 1.65745577 0 0 Z " fill="#C7C7C7" transform="translate(329,268)"/>
<path d="M0 0 C0.66 0.33 1.32 0.66 2 1 C1.57589844 1.4125 1.15179688 1.825 0.71484375 2.25 C-3.75238723 6.64850435 -7.9278528 11.23472137 -12 16 C-12 12.32180832 -11.23156682 11.77617345 -8.8125 9.125 C-8.17828125 8.42632812 -7.5440625 7.72765625 -6.890625 7.0078125 C-4.64038137 4.61809096 -2.35642724 2.28502036 0 0 Z " fill="#C5C5C5" transform="translate(444,270)"/>
<path d="M0 0 C0.66 0.33 1.32 0.66 2 1 C2 1.99 2 2.98 2 4 C-1.55692372 7.42989073 -4.21341528 7 -9 7 C-6.03 4.69 -3.06 2.38 0 0 Z " fill="#2C2C2C" transform="translate(304,271)"/>
<path d="M0 0 C0.66 0 1.32 0 2 0 C0.46603592 3.45141917 -1.59495974 6.09980439 -4 9 C-4.7425 9.928125 -5.485 10.85625 -6.25 11.8125 C-6.8275 12.534375 -7.405 13.25625 -8 14 C-7.65015815 8.40253042 -3.85992893 3.85992893 0 0 Z " fill="#C7C7C7" transform="translate(205,354)"/>
<path d="M0 0 C0 3 0 3 -2.3125 5.5625 C-5 8 -5 8 -8 10 C-8.99 9.34 -9.98 8.68 -11 8 C-7.37 5.36 -3.74 2.72 0 0 Z " fill="#313131" transform="translate(603,750)"/>
<path d="M0 0 C0 1.98 0 3.96 0 6 C-0.33 6 -0.66 6 -1 6 C-1 4.35 -1 2.7 -1 1 C-1.66 1.66 -2.32 2.32 -3 3 C-5.6015625 3.1953125 -5.6015625 3.1953125 -8.625 3.125 C-10.12933594 3.09792969 -10.12933594 3.09792969 -11.6640625 3.0703125 C-12.43492187 3.04710937 -13.20578125 3.02390625 -14 3 C-9.25294723 -0.16470185 -5.68228705 -0.10927475 0 0 Z " fill="#3F3F3F" transform="translate(336,259)"/>
<path d="M0 0 C0.53625 0.226875 1.0725 0.45375 1.625 0.6875 C0.635 1.1825 0.635 1.1825 -0.375 1.6875 C-0.375 2.3475 -0.375 3.0075 -0.375 3.6875 C-2.355 4.3475 -4.335 5.0075 -6.375 5.6875 C-6.375 5.0275 -6.375 4.3675 -6.375 3.6875 C-7.035 3.3575 -7.695 3.0275 -8.375 2.6875 C-2.95961538 -0.38942308 -2.95961538 -0.38942308 0 0 Z " fill="#2B2B2B" transform="translate(603.375,637.3125)"/>
<path d="M0 0 C0.99 0 1.98 0 3 0 C3.3125 2.3125 3.3125 2.3125 3 5 C0.5 6.8125 0.5 6.8125 -2 8 C-2.33 6.68 -2.66 5.36 -3 4 C-2.34 4 -1.68 4 -1 4 C-0.67 2.68 -0.34 1.36 0 0 Z " fill="#0F0F0F" transform="translate(332,260)"/>
<path d="M0 0 C0.99 1.32 1.98 2.64 3 4 C2.67 4.66 2.34 5.32 2 6 C0.35 6 -1.3 6 -3 6 C-3 4.35 -3 2.7 -3 1 C-2.01 0.67 -1.02 0.34 0 0 Z " fill="#0C0C0C" transform="translate(594,758)"/>
<path d="M0 0 C0.66 0 1.32 0 2 0 C2 0.66 2 1.32 2 2 C3.32 2.33 4.64 2.66 6 3 C3.03 5.475 3.03 5.475 0 8 C-0.66 7.34 -1.32 6.68 -2 6 C-1.67 5.38125 -1.34 4.7625 -1 4.125 C0.14193235 2.08981656 0.14193235 2.08981656 0 0 Z " fill="#171717" transform="translate(833,681)"/>
<path d="M0 0 C6.875 3.75 6.875 3.75 8 6 C7.01 6.33 6.02 6.66 5 7 C4.01 6.01 3.02 5.02 2 4 C1.01 4.495 1.01 4.495 0 5 C-0.99 4.34 -1.98 3.68 -3 3 C-2.34 3 -1.68 3 -1 3 C-0.67 2.01 -0.34 1.02 0 0 Z " fill="#141414" transform="translate(825,335)"/>
<path d="M0 0 C2.33294775 -0.04241723 4.66702567 -0.04092937 7 0 C8 1 8 1 8.0625 3.5625 C8.041875 4.366875 8.02125 5.17125 8 6 C7.01 6.33 6.02 6.66 5 7 C4.9175 6.21625 4.835 5.4325 4.75 4.625 C4.27193661 1.85250896 4.27193661 1.85250896 1.9375 0.6875 C1.298125 0.460625 0.65875 0.23375 0 0 Z " fill="#232323" transform="translate(445,259)"/>
<path d="M0 0 C0.99 0.33 1.98 0.66 3 1 C1.25 6.75 1.25 6.75 -1 9 C-2.1875 7.3125 -2.1875 7.3125 -3 5 C-1.625 2.25 -1.625 2.25 0 0 Z " fill="#1A1A1A" transform="translate(657,705)"/>
<path d="M0 0 C0.33 0.99 0.66 1.98 1 3 C-1.64 5.64 -4.28 8.28 -7 11 C-7.66 10.67 -8.32 10.34 -9 10 C-6.03 6.7 -3.06 3.4 0 0 Z " fill="#CBCBCB" transform="translate(346,369)"/>
<path d="M0 0 C0.66 0 1.32 0 2 0 C1.125 4.875 1.125 4.875 0 6 C-1.99958364 6.04080783 -4.00045254 6.04254356 -6 6 C-4 4 -2 2 0 0 Z " fill="#1C1C1C" transform="translate(226,343)"/>
<path d="M0 0 C1.31157516 2.62315032 0.89649988 4.23033436 0.5625 7.125 C0.46066406 8.03507812 0.35882813 8.94515625 0.25390625 9.8828125 C0.12822266 10.93082031 0.12822266 10.93082031 0 12 C-0.66 11.67 -1.32 11.34 -2 11 C-2.25 3.375 -2.25 3.375 0 0 Z " fill="#4B4B4B" transform="translate(489,332)"/>
<path d="M0 0 C0.66 0.66 1.32 1.32 2 2 C1.01 3.98 0.02 5.96 -1 8 C-2.5625 6.1875 -2.5625 6.1875 -4 4 C-3.67 3.01 -3.34 2.02 -3 1 C-2.01 0.67 -1.02 0.34 0 0 Z " fill="#161616" transform="translate(312,283)"/>
<path d="M0 0 C0 3.77910478 -0.99703962 4.46106101 -3.5 7.1875 C-4.47453125 8.26064453 -4.47453125 8.26064453 -5.46875 9.35546875 C-5.9740625 9.89816406 -6.479375 10.44085938 -7 11 C-7 7.22089522 -6.00296038 6.53893899 -3.5 3.8125 C-2.8503125 3.09707031 -2.200625 2.38164062 -1.53125 1.64453125 C-1.0259375 1.10183594 -0.520625 0.55914062 0 0 Z " fill="#414141" transform="translate(190,340)"/>
<path d="M0 0 C0.33 1.32 0.66 2.64 1 4 C-0.21484375 5.703125 -0.21484375 5.703125 -1.9375 7.25 C-2.50339844 7.77078125 -3.06929687 8.2915625 -3.65234375 8.828125 C-4.09707031 9.21484375 -4.54179688 9.6015625 -5 10 C-5.66 9.67 -6.32 9.34 -7 9 C-4.69 6.03 -2.38 3.06 0 0 Z " fill="#C9C9C9" transform="translate(767,726)"/>
<path d="M0 0 C2.97 0.495 2.97 0.495 6 1 C6 1.66 6 2.32 6 3 C7.65 3.33 9.3 3.66 11 4 C10.01 4.66 9.02 5.32 8 6 C8 5.34 8 4.68 8 4 C6.68 4.33 5.36 4.66 4 5 C4 4.01 4 3.02 4 2 C2.68 1.67 1.36 1.34 0 1 C0 0.67 0 0.34 0 0 Z " fill="#2F2F2F" transform="translate(321,301)"/>
<path d="M0 0 C0.66 0.33 1.32 0.66 2 1 C1.67 1.99 1.34 2.98 1 4 C0.34 4 -0.32 4 -1 4 C-1.33 4.66 -1.66 5.32 -2 6 C-4.5625 6.625 -4.5625 6.625 -7 7 C-4.66666667 4.66666667 -2.33333333 2.33333333 0 0 Z " fill="#2A2A2A" transform="translate(724,747)"/>
<path d="M0 0 C3.875 1.875 3.875 1.875 5 3 C5.04092937 5.33297433 5.04241723 7.66705225 5 10 C4.67 10 4.34 10 4 10 C4 8.02 4 6.04 4 4 C2.68 3.67 1.36 3.34 0 3 C0 2.01 0 1.02 0 0 Z " fill="#2D2D2D" transform="translate(543,683)"/>
<path d="M0 0 C0.66 0.99 1.32 1.98 2 3 C1.67 3.66 1.34 4.32 1 5 C1.99 4.67 2.98 4.34 4 4 C4 4.66 4 5.32 4 6 C3.01 6.33 2.02 6.66 1 7 C-0.32 5.68 -1.64 4.36 -3 3 C-2.01 2.01 -1.02 1.02 0 0 Z " fill="#191919" transform="translate(705,646)"/>
<path d="M0 0 C2.3125 -0.25 2.3125 -0.25 5 0 C6.8125 2 6.8125 2 8 4 C6.02 4 4.04 4 2 4 C1.34 2.68 0.68 1.36 0 0 Z " fill="#222222" transform="translate(831,342)"/>
<path d="M0 0 C2.475 0.495 2.475 0.495 5 1 C4.67 2.65 4.34 4.3 4 6 C3.34 6 2.68 6 2 6 C1.34 4.02 0.68 2.04 0 0 Z " fill="#1D1D1D" transform="translate(765,648)"/>
<path d="M0 0 C0 3 0 3 -2.5 5.6875 C-3.325 6.450625 -4.15 7.21375 -5 8 C-5.66 7.67 -6.32 7.34 -7 7 C-4.69 4.69 -2.38 2.38 0 0 Z " fill="#505050" transform="translate(407,282)"/>
<path d="M0 0 C0.66 0.33 1.32 0.66 2 1 C1.01 2.98 0.02 4.96 -1 7 C-2.32 6.01 -3.64 5.02 -5 4 C-3.35 2.68 -1.7 1.36 0 0 Z " fill="#353535" transform="translate(420,272)"/>
<path d="M0 0 C0.33 0.99 0.66 1.98 1 3 C-0.65 4.65 -2.3 6.3 -4 8 C-4 5 -4 5 -3 3 C-2.34 3 -1.68 3 -1 3 C-0.67 2.01 -0.34 1.02 0 0 Z " fill="#3A3A3A" transform="translate(585,648)"/>
<path d="M0 0 C0.66 0.33 1.32 0.66 2 1 C2 1.99 2 2.98 2 4 C1.01 4 0.02 4 -1 4 C-1 4.99 -1 5.98 -1 7 C-1.66 6.67 -2.32 6.34 -3 6 C-2.67 5.34 -2.34 4.68 -2 4 C-2.66 3.67 -3.32 3.34 -4 3 C-2.68 2.01 -1.36 1.02 0 0 Z " fill="#363636" transform="translate(195,336)"/>
<path d="M0 0 C0.33 0.66 0.66 1.32 1 2 C-0.65 3.98 -2.3 5.96 -4 8 C-4.66 7.67 -5.32 7.34 -6 7 C-4.02 4.69 -2.04 2.38 0 0 Z " fill="#323232" transform="translate(284,288)"/>
</svg>
